<svg width="42" height="42" viewBox="0 0 42 42" fill="none" xmlns="http://www.w3.org/2000/svg">
<path d="M18.9166 33.5003H23.0833V29.3337H18.9166V33.5003ZM21 0.166992C9.49996 0.166992 0.166626 9.50033 0.166626 21.0003C0.166626 32.5003 9.49996 41.8337 21 41.8337C32.5 41.8337 41.8333 32.5003 41.8333 21.0003C41.8333 9.50033 32.5 0.166992 21 0.166992ZM21 37.667C11.8125 37.667 4.33329 30.1878 4.33329 21.0003C4.33329 11.8128 11.8125 4.33366 21 4.33366C30.1875 4.33366 37.6666 11.8128 37.6666 21.0003C37.6666 30.1878 30.1875 37.667 21 37.667ZM21 8.50033C16.3958 8.50033 12.6666 12.2295 12.6666 16.8337H16.8333C16.8333 14.542 18.7083 12.667 21 12.667C23.2916 12.667 25.1666 14.542 25.1666 16.8337C25.1666 21.0003 18.9166 20.4795 18.9166 27.2503H23.0833C23.0833 22.5628 29.3333 22.042 29.3333 16.8337C29.3333 12.2295 25.6041 8.50033 21 8.50033Z" fill="white"/>
</svg>
