{
  "accessors": [
    {
      "name": "3_FK_MET01_1_0_positions",
      "componentType": 5126,
      "count": 224,
      "min": [-165.20120239257812, 310.9171142578125, -117.095703125],
      "max": [164.9980010986328, 922.7139282226562, 212.8809051513672],
      "type": "VEC3",
      "bufferView": 0,
      "byteOffset": 0
    },
    {
      "name": "3_FK_MET01_1_0_texcoords",
      "componentType": 5126,
      "count": 224,
      "min": [0.07490000128746033, 0.26669999957084656],
      "max": [0.9251000285148621, 2.259500026702881],
      "type": "VEC2",
      "bufferView": 1,
      "byteOffset": 0
    },
    {
      "name": "3_FK_MET01_1_0_indices",
      "componentType": 5123,
      "count": 744,
      "min": [0],
      "max": [223],
      "type": "SCALAR",
      "bufferView": 2,
      "byteOffset": 0
    },
    {
      "name": "3_FK_BEZUG_1_0_positions",
      "componentType": 5126,
      "count": 6672,
      "min": [-863.8319702148438, 941.960693359375, -756.4022827148438],
      "max": [863.6298828125, 2354.94970703125, 867.453125],
      "type": "VEC3",
      "bufferView": 0,
      "byteOffset": 2688
    },
    {
      "name": "3_FK_BEZUG_1_0_texcoords",
      "componentType": 5126,
      "count": 6672,
      "min": [-1.2273000478744507, -1.826799988746643],
      "max": [2.2276999950408936, 2.233099937438965],
      "type": "VEC2",
      "bufferView": 1,
      "byteOffset": 1792
    },
    {
      "name": "3_FK_BEZUG_1_0_indices",
      "componentType": 5123,
      "count": 27576,
      "min": [0],
      "max": [6671],
      "type": "SCALAR",
      "bufferView": 2,
      "byteOffset": 1488
    },
    {
      "name": "3_FK_LACK__1_0_positions",
      "componentType": 5126,
      "count": 13167,
      "min": [-851.861328125, 858.1846923828125, -754.9569702148438],
      "max": [851.6591796875, 2337.52783203125, 871.779296875],
      "type": "VEC3",
      "bufferView": 0,
      "byteOffset": 82752
    },
    {
      "name": "3_FK_LACK__1_0_texcoords",
      "componentType": 5126,
      "count": 13167,
      "min": [-1.2073999643325806, -1.858299970626831],
      "max": [2.2035999298095703, 2.234800100326538],
      "type": "VEC2",
      "bufferView": 1,
      "byteOffset": 55168
    },
    {
      "name": "3_FK_LACK__1_0_indices",
      "componentType": 5123,
      "count": 65508,
      "min": [0],
      "max": [13166],
      "type": "SCALAR",
      "bufferView": 2,
      "byteOffset": 56640
    },
    {
      "name": "3_FK_METAL_1_0_positions",
      "componentType": 5126,
      "count": 3653,
      "min": [-879.55078125, 31.490999221801758, -872.2852172851562],
      "max": [879.55078125, 475.9825134277344, 806.546875],
      "type": "VEC3",
      "bufferView": 0,
      "byteOffset": 240756
    },
    {
      "name": "3_FK_METAL_1_0_texcoords",
      "componentType": 5126,
      "count": 3653,
      "min": [-1.2583999633789062, -1.243899941444397],
      "max": [2.2583999633789062, 2.817699909210205],
      "type": "VEC2",
      "bufferView": 1,
      "byteOffset": 160504
    },
    {
      "name": "3_FK_METAL_1_0_indices",
      "componentType": 5123,
      "count": 15042,
      "min": [0],
      "max": [3652],
      "type": "SCALAR",
      "bufferView": 2,
      "byteOffset": 187656
    },
    {
      "name": "3_FK_GLEIT_1_0_positions",
      "componentType": 5126,
      "count": 200,
      "min": [-875.0391235351562, 26.410999298095703, -867.525390625],
      "max": [874.61328125, 31.490999221801758, 801.9276733398438],
      "type": "VEC3",
      "bufferView": 0,
      "byteOffset": 284592
    },
    {
      "name": "3_FK_GLEIT_1_0_texcoords",
      "componentType": 5126,
      "count": 200,
      "min": [-1.250100016593933, -1.2351000308990479],
      "max": [2.2500998973846436, 2.8285000324249268],
      "type": "VEC2",
      "bufferView": 1,
      "byteOffset": 189728
    },
    {
      "name": "3_FK_GLEIT_1_0_indices",
      "componentType": 5123,
      "count": 420,
      "min": [0],
      "max": [199],
      "type": "SCALAR",
      "bufferView": 2,
      "byteOffset": 217740
    }
  ],
  "asset": {
    "generator": "obj2gltf",
    "version": "2.0"
  },
  "buffers": [
    {
      "name": "Armchair 6729-5G",
      "byteLength": 1656512,
      "uri": "data:application/octet-stream;base64,"
    }
  ],
  "bufferViews": [
    {
      "name": "bufferView_0",
      "buffer": 0,
      "byteLength": 286992,
      "byteOffset": 0,
      "byteStride": 12,
      "target": 34962
    },
    {
      "name": "bufferView_1",
      "buffer": 0,
      "byteLength": 191328,
      "byteOffset": 286992,
      "byteStride": 8,
      "target": 34962
    },
    {
      "name": "bufferView_2",
      "buffer": 0,
      "byteLength": 218580,
      "byteOffset": 478320,
      "target": 34963
    },
    {
      "buffer": 0,
      "byteOffset": 696900,
      "byteLength": 236071
    },
    {
      "buffer": 0,
      "byteOffset": 932971,
      "byteLength": 313005
    },
    {
      "buffer": 0,
      "byteOffset": 1245976,
      "byteLength": 204271
    },
    {
      "buffer": 0,
      "byteOffset": 1450247,
      "byteLength": 206265
    }
  ],
  "images": [
    {
      "name": "metalyel",
      "mimeType": "image/jpeg",
      "bufferView": 3
    },
    {
      "name": "leat blc",
      "mimeType": "image/jpeg",
      "bufferView": 4
    },
    {
      "name": "metalwhi",
      "mimeType": "image/jpeg",
      "bufferView": 5
    },
    {
      "name": "metalbla",
      "mimeType": "image/jpeg",
      "bufferView": 6
    }
  ],
  "materials": [
    {
      "name": "st_gold",
      "pbrMetallicRoughness": {
        "baseColorTexture": {
          "index": 0
        },
        "baseColorFactor": [1, 1, 1, 1],
        "metallicFactor": 0,
        "roughnessFactor": 0.99
      },
      "emissiveFactor": [0, 0, 0],
      "alphaMode": "OPAQUE",
      "doubleSided": false
    },
    {
      "name": "st_leather",
      "pbrMetallicRoughness": {
        "baseColorTexture": {
          "index": 1
        },
        "baseColorFactor": [1, 1, 1, 1],
        "metallicFactor": 0,
        "roughnessFactor": 0.99
      },
      "emissiveFactor": [0, 0, 0],
      "alphaMode": "OPAQUE",
      "doubleSided": false
    },
    {
      "name": "white_st",
      "pbrMetallicRoughness": {
        "baseColorTexture": {
          "index": 2
        },
        "baseColorFactor": [1, 1, 1, 1],
        "metallicFactor": 0,
        "roughnessFactor": 0.9299999999999999
      },
      "emissiveFactor": [0, 0, 0],
      "alphaMode": "OPAQUE",
      "doubleSided": false
    },
    {
      "name": "black_st",
      "pbrMetallicRoughness": {
        "baseColorTexture": {
          "index": 3
        },
        "baseColorFactor": [1, 1, 1, 1],
        "metallicFactor": 0,
        "roughnessFactor": 0.9299999999999999
      },
      "emissiveFactor": [0, 0, 0],
      "alphaMode": "OPAQUE",
      "doubleSided": false
    }
  ],
  "meshes": [
    {
      "name": "3_FK_MET01_1",
      "primitives": [
        {
          "attributes": {
            "POSITION": 0,
            "TEXCOORD_0": 1
          },
          "indices": 2,
          "material": 0,
          "mode": 4
        }
      ]
    },
    {
      "name": "3_FK_BEZUG_1",
      "primitives": [
        {
          "attributes": {
            "POSITION": 3,
            "TEXCOORD_0": 4
          },
          "indices": 5,
          "material": 1,
          "mode": 4
        }
      ]
    },
    {
      "name": "3_FK_LACK__1",
      "primitives": [
        {
          "attributes": {
            "POSITION": 6,
            "TEXCOORD_0": 7
          },
          "indices": 8,
          "material": 2,
          "mode": 4
        }
      ]
    },
    {
      "name": "3_FK_METAL_1",
      "primitives": [
        {
          "attributes": {
            "POSITION": 9,
            "TEXCOORD_0": 10
          },
          "indices": 11,
          "material": 0,
          "mode": 4
        }
      ]
    },
    {
      "name": "3_FK_GLEIT_1",
      "primitives": [
        {
          "attributes": {
            "POSITION": 12,
            "TEXCOORD_0": 13
          },
          "indices": 14,
          "material": 3,
          "mode": 4
        }
      ]
    }
  ],
  "nodes": [
    {
      "name": "3_FK_MET01",
      "mesh": 0
    },
    {
      "name": "3_FK_BEZUG",
      "mesh": 1
    },
    {
      "name": "3_FK_LACK_",
      "mesh": 2
    },
    {
      "name": "3_FK_METAL",
      "mesh": 3
    },
    {
      "name": "3_FK_GLEIT",
      "mesh": 4
    }
  ],
  "samplers": [
    {
      "magFilter": 9729,
      "minFilter": 9986,
      "wrapS": 10497,
      "wrapT": 10497
    }
  ],
  "scene": 0,
  "scenes": [
    {
      "nodes": [0, 1, 2, 3, 4]
    }
  ],
  "textures": [
    {
      "name": "metalyel",
      "sampler": 0,
      "source": 0
    },
    {
      "name": "leat blc",
      "sampler": 0,
      "source": 1
    },
    {
      "name": "metalwhi",
      "sampler": 0,
      "source": 2
    },
    {
      "name": "metalbla",
      "sampler": 0,
      "source": 3
    }
  ]
}
