{
  "asset": { "version": "2.0", "generator": "THREE.GLTFExporter" },
  "scenes": [{ "nodes": [0], "name": "AuxScene" }],
  "scene": 0,
  "nodes": [{ "mesh": 0 }],
  "bufferViews": [
    {
      "buffer": 0,
      "byteOffset": 0,
      "byteLength": 504,
      "target": 34962,
      "byteStride": 12
    },
    {
      "buffer": 0,
      "byteOffset": 504,
      "byteLength": 504,
      "target": 34962,
      "byteStride": 12
    }
  ],
  "buffers": [
    {
      "byteLength": 1008,
      "uri": "data:application/octet-stream;base64,"
    }
  ],
  "accessors": [
    {
      "bufferView": 0,
      "componentType": 5126,
      "count": 42,
      "max": [5.7515997886657715, 0.20000000298023224, 5.604001045227051],
      "min": [-5.648399829864502, 0.20000000298023224, -5.495999813079834],
      "type": "VEC3"
    },
    {
      "bufferView": 1,
      "componentType": 5126,
      "count": 42,
      "max": [0, 1, 0],
      "min": [0, 1, 0],
      "type": "VEC3"
    }
  ],
  "materials": [
    {
      "pbrMetallicRoughness": {
        "baseColorFactor": [
          0.5019607843137255,
          0.5019607843137255,
          0.5019607843137255,
          1
        ],
        "metallicFactor": 0,
        "roughnessFactor": 1
      }
    }
  ],
  "meshes": [
    {
      "primitives": [
        {
          "mode": 4,
          "attributes": { "POSITION": 0, "NORMAL": 1 },
          "material": 0
        }
      ]
    }
  ]
}
