{
  "asset": { "version": "2.0", "generator": "THREE.GLTFExporter" },
  "scenes": [{ "nodes": [0], "name": "AuxScene" }],
  "scene": 0,
  "nodes": [{ "mesh": 0 }],
  "bufferViews": [
    {
      "buffer": 0,
      "byteOffset": 0,
      "byteLength": 1836,
      "target": 34962,
      "byteStride": 12
    },
    {
      "buffer": 0,
      "byteOffset": 1836,
      "byteLength": 1836,
      "target": 34962,
      "byteStride": 12
    }
  ],
  "buffers": [
    {
      "byteLength": 3672,
      "uri": "data:application/octet-stream;base64,"
    }
  ],
  "accessors": [
    {
      "bufferView": 0,
      "componentType": 5126,
      "count": 153,
      "max": [9.427703857421875, 6.329999923706055, 11.709173202514648],
      "min": [-7.372297763824463, 0.33000001311302185, -4.790826797485352],
      "type": "VEC3"
    },
    {
      "bufferView": 1,
      "componentType": 5126,
      "count": 153,
      "max": [0.19005577266216278, 1, 0.4423258602619171],
      "min": [-0.3162277638912201, 0.8846517205238342, -0.28375500440597534],
      "type": "VEC3"
    }
  ],
  "materials": [
    {
      "pbrMetallicRoughness": {
        "baseColorFactor": [
          0.5019607843137255,
          0.5019607843137255,
          0.5019607843137255,
          1
        ],
        "metallicFactor": 0,
        "roughnessFactor": 1
      }
    }
  ],
  "meshes": [
    {
      "primitives": [
        {
          "mode": 4,
          "attributes": { "POSITION": 0, "NORMAL": 1 },
          "material": 0
        }
      ]
    }
  ]
}
