{
  "asset": {
    "generator": "Khronos glTF Blender I/O v1.5.17",
    "version": "2.0"
  },
  "scene": 0,
  "scenes": [
    {
      "name": "Scene",
      "nodes": [3, 4, 5]
    }
  ],
  "nodes": [
    {
      "mesh": 0,
      "name": "Object_2"
    },
    {
      "mesh": 1,
      "name": "Object_3"
    },
    {
      "children": [0, 1],
      "name": "ff killer.obj.cleaner.materialmerger.gles"
    },
    {
      "children": [2],
      "name": "Sketchfab_model",
      "rotation": [-0.7071068286895752, 0, 0, 0.7071068286895752]
    },
    {
      "name": "Light",
      "rotation": [
        0.16907575726509094,
        0.7558803558349609,
        -0.27217137813568115,
        0.570947527885437
      ],
      "translation": [4.076245307922363, 5.903861999511719, -1.0054539442062378]
    },
    {
      "name": "Camera",
      "rotation": [
        0.483536034822464,
        0.33687159419059753,
        -0.20870360732078552,
        0.7804827094078064
      ],
      "translation": [7.358891487121582, 4.958309173583984, 6.925790786743164]
    }
  ],
  "materials": [
    {
      "doubleSided": true,
      "name": "Mesh_0002.rip.002",
      "pbrMetallicRoughness": {
        "baseColorTexture": {
          "index": 0
        },
        "metallicFactor": 0,
        "roughnessFactor": 0.6000000238418579
      }
    },
    {
      "doubleSided": true,
      "name": "Mesh_0003.rip.002",
      "pbrMetallicRoughness": {
        "baseColorTexture": {
          "index": 1
        },
        "metallicFactor": 0,
        "metallicRoughnessTexture": {
          "index": 2
        }
      }
    }
  ],
  "meshes": [
    {
      "name": "Object_0.004",
      "primitives": [
        {
          "attributes": {
            "POSITION": 0,
            "NORMAL": 1,
            "TEXCOORD_0": 2
          },
          "indices": 3,
          "material": 0
        }
      ]
    },
    {
      "name": "Object_1.004",
      "primitives": [
        {
          "attributes": {
            "POSITION": 4,
            "NORMAL": 5,
            "TEXCOORD_0": 6
          },
          "indices": 7,
          "material": 1
        }
      ]
    }
  ],
  "textures": [
    {
      "sampler": 0,
      "source": 0
    },
    {
      "sampler": 0,
      "source": 1
    },
    {
      "sampler": 0,
      "source": 2
    }
  ],
  "images": [
    {
      "bufferView": 4,
      "mimeType": "image/png",
      "name": "Mesh_0002.rip_baseColor"
    },
    {
      "bufferView": 9,
      "mimeType": "image/png",
      "name": "Mesh_0003.rip_baseColor"
    },
    {
      "bufferView": 10,
      "mimeType": "image/png",
      "name": "Mesh_0003.rip_metallicRoughness"
    }
  ],
  "accessors": [
    {
      "bufferView": 0,
      "componentType": 5126,
      "count": 1576,
      "max": [0.15752899646759033, 0.1271129995584488, 0.9349799752235413],
      "min": [
        -0.15374000370502472,
        -0.15924300253391266,
        -0.0016899999463930726
      ],
      "type": "VEC3"
    },
    {
      "bufferView": 1,
      "componentType": 5126,
      "count": 1576,
      "type": "VEC3"
    },
    {
      "bufferView": 2,
      "componentType": 5126,
      "count": 1576,
      "type": "VEC2"
    },
    {
      "bufferView": 3,
      "componentType": 5123,
      "count": 7836,
      "type": "SCALAR"
    },
    {
      "bufferView": 5,
      "componentType": 5126,
      "count": 2321,
      "max": [0.16838499903678894, 0.14497600495815277, 0.9518330097198486],
      "min": [
        -0.16069599986076355,
        -0.17260900139808655,
        -0.0043379999697208405
      ],
      "type": "VEC3"
    },
    {
      "bufferView": 6,
      "componentType": 5126,
      "count": 2321,
      "type": "VEC3"
    },
    {
      "bufferView": 7,
      "componentType": 5126,
      "count": 2321,
      "type": "VEC2"
    },
    {
      "bufferView": 8,
      "componentType": 5123,
      "count": 10758,
      "type": "SCALAR"
    }
  ],
  "bufferViews": [
    {
      "buffer": 0,
      "byteLength": 18912,
      "byteOffset": 0
    },
    {
      "buffer": 0,
      "byteLength": 18912,
      "byteOffset": 18912
    },
    {
      "buffer": 0,
      "byteLength": 12608,
      "byteOffset": 37824
    },
    {
      "buffer": 0,
      "byteLength": 15672,
      "byteOffset": 50432
    },
    {
      "buffer": 0,
      "byteLength": 266827,
      "byteOffset": 66104
    },
    {
      "buffer": 0,
      "byteLength": 27852,
      "byteOffset": 332932
    },
    {
      "buffer": 0,
      "byteLength": 27852,
      "byteOffset": 360784
    },
    {
      "buffer": 0,
      "byteLength": 18568,
      "byteOffset": 388636
    },
    {
      "buffer": 0,
      "byteLength": 21516,
      "byteOffset": 407204
    },
    {
      "buffer": 0,
      "byteLength": 359785,
      "byteOffset": 428720
    },
    {
      "buffer": 0,
      "byteLength": 187446,
      "byteOffset": 788508
    }
  ],
  "samplers": [
    {
      "magFilter": 9729,
      "minFilter": 9987
    }
  ],
  "buffers": [
    {
      "byteLength": 975956,
      "uri": "data:application/octet-stream;base64,"
    }
  ]
}
