{
  "asset": { "version": "2.0", "generator": "THREE.GLTFExporter" },
  "scenes": [{ "nodes": [0], "name": "AuxScene" }],
  "scene": 0,
  "nodes": [{ "mesh": 0 }],
  "bufferViews": [
    {
      "buffer": 0,
      "byteOffset": 0,
      "byteLength": 37980,
      "target": 34962,
      "byteStride": 12
    },
    {
      "buffer": 0,
      "byteOffset": 37980,
      "byteLength": 37980,
      "target": 34962,
      "byteStride": 12
    }
  ],
  "buffers": [
    {
      "byteLength": 75960,
      "uri": "data:application/octet-stream;base64,"
    }
  ],
  "accessors": [
    {
      "bufferView": 0,
      "componentType": 5126,
      "count": 3165,
      "max": [232.90000915527344, 62.32998275756836, 70.16375732421875],
      "min": [3.0999999046325684, -0.4700160026550293, -116.43624877929688],
      "type": "VEC3"
    },
    {
      "bufferView": 1,
      "componentType": 5126,
      "count": 3165,
      "max": [0.6970393657684326, 1, 0.8449873924255371],
      "min": [-0.8392542004585266, 0.1531640738248825, -0.8041328191757202],
      "type": "VEC3"
    }
  ],
  "materials": [
    {
      "pbrMetallicRoughness": {
        "baseColorFactor": [
          0.5019607843137255,
          0.5019607843137255,
          0.5019607843137255,
          1
        ],
        "metallicFactor": 0,
        "roughnessFactor": 1
      }
    }
  ],
  "meshes": [
    {
      "primitives": [
        {
          "mode": 4,
          "attributes": { "POSITION": 0, "NORMAL": 1 },
          "material": 0
        }
      ]
    }
  ]
}
