{
  "asset": { "version": "2.0", "generator": "THREE.GLTFExporter" },
  "scenes": [{ "nodes": [0], "name": "AuxScene" }],
  "scene": 0,
  "nodes": [{ "mesh": 0 }],
  "bufferViews": [
    {
      "buffer": 0,
      "byteOffset": 0,
      "byteLength": 20160,
      "target": 34962,
      "byteStride": 12
    },
    {
      "buffer": 0,
      "byteOffset": 20160,
      "byteLength": 20160,
      "target": 34962,
      "byteStride": 12
    }
  ],
  "buffers": [
    {
      "byteLength": 40320,
      "uri": "data:application/octet-stream;base64,"
    }
  ],
  "accessors": [
    {
      "bufferView": 0,
      "componentType": 5126,
      "count": 1680,
      "max": [231, 62.33000183105469, 68.26374816894531],
      "min": [5, -0.6700000166893005, -113.73625183105469],
      "type": "VEC3"
    },
    {
      "bufferView": 1,
      "componentType": 5126,
      "count": 1680,
      "max": [0.03331483155488968, 1, 0.019995901733636856],
      "min": [-0.021420679986476898, 0.9977851510047913, -0.06651900708675385],
      "type": "VEC3"
    }
  ],
  "materials": [
    {
      "pbrMetallicRoughness": {
        "baseColorFactor": [
          0.5019607843137255,
          0.5019607843137255,
          0.5019607843137255,
          1
        ],
        "metallicFactor": 0,
        "roughnessFactor": 1
      }
    }
  ],
  "meshes": [
    {
      "primitives": [
        {
          "mode": 4,
          "attributes": { "POSITION": 0, "NORMAL": 1 },
          "material": 0
        }
      ]
    }
  ]
}
