{
  "asset": {
    "generator": "Khronos glTF Blender I/O v1.6.16",
    "version": "2.0"
  },
  "scene": 0,
  "scenes": [
    {
      "name": "Scene",
      "nodes": [0, 1, 2, 3, 4]
    }
  ],
  "nodes": [
    {
      "mesh": 0,
      "name": "Mesh_0",
      "translation": [0, 2.456312656402588, 0]
    },
    {
      "name": "Light.001",
      "rotation": [
        0.16907575726509094,
        0.7558803558349609,
        -0.27217137813568115,
        0.570947527885437
      ],
      "translation": [4.076245307922363, 7.851980209350586, -1.0054539442062378]
    },
    {
      "name": "Camera.001",
      "rotation": [
        0.483536034822464,
        0.33687159419059753,
        -0.20870360732078552,
        0.7804827094078064
      ],
      "translation": [7.358891487121582, 6.906427383422852, 6.925790786743164]
    },
    {
      "name": "Light",
      "rotation": [
        0.16907575726509094,
        0.7558803558349609,
        -0.27217137813568115,
        0.570947527885437
      ],
      "translation": [4.076245307922363, 7.210174560546875, -1.0054539442062378]
    },
    {
      "name": "Camera",
      "rotation": [
        0.483536034822464,
        0.33687159419059753,
        -0.20870360732078552,
        0.7804827094078064
      ],
      "translation": [7.358891487121582, 6.264621734619141, 6.925790786743164]
    }
  ],
  "materials": [
    {
      "name": "Material_0.001",
      "pbrMetallicRoughness": {
        "baseColorFactor": [
          0.501960813999176,
          0.501960813999176,
          0.501960813999176,
          1
        ],
        "metallicFactor": 0
      }
    }
  ],
  "meshes": [
    {
      "name": "Mesh_0.001",
      "primitives": [
        {
          "attributes": {
            "POSITION": 0,
            "NORMAL": 1
          },
          "indices": 2,
          "material": 0
        }
      ]
    }
  ],
  "accessors": [
    {
      "bufferView": 0,
      "componentType": 5126,
      "count": 220,
      "max": [12.434548377990723, -0.6088780164718628, 13.319263458251953],
      "min": [-8.265451431274414, -0.6090191602706909, -16.980737686157227],
      "type": "VEC3"
    },
    {
      "bufferView": 1,
      "componentType": 5126,
      "count": 220,
      "type": "VEC3"
    },
    {
      "bufferView": 2,
      "componentType": 5123,
      "count": 252,
      "type": "SCALAR"
    }
  ],
  "bufferViews": [
    {
      "buffer": 0,
      "byteLength": 2640,
      "byteOffset": 0
    },
    {
      "buffer": 0,
      "byteLength": 2640,
      "byteOffset": 2640
    },
    {
      "buffer": 0,
      "byteLength": 504,
      "byteOffset": 5280
    }
  ],
  "buffers": [
    {
      "byteLength": 5784,
      "uri": "data:application/octet-stream;base64,"
    }
  ]
}
