{
  "asset": {
    "generator": "Khronos glTF Blender I/O v1.5.17",
    "version": "2.0"
  },
  "scene": 0,
  "scenes": [
    {
      "name": "Scene",
      "nodes": [3, 4, 5]
    }
  ],
  "nodes": [
    {
      "mesh": 0,
      "name": "Object_2"
    },
    {
      "mesh": 1,
      "name": "Object_3"
    },
    {
      "children": [0, 1],
      "name": "Ruok cowo.obj.cleaner.materialmerger.gles"
    },
    {
      "children": [2],
      "name": "Sketchfab_model",
      "rotation": [-0.7071068286895752, 0, 0, 0.7071068286895752]
    },
    {
      "name": "Light",
      "rotation": [
        0.16907575726509094,
        0.7558803558349609,
        -0.27217137813568115,
        0.570947527885437
      ],
      "translation": [4.076245307922363, 5.903861999511719, -1.0054539442062378]
    },
    {
      "name": "Camera",
      "rotation": [
        0.483536034822464,
        0.33687159419059753,
        -0.20870360732078552,
        0.7804827094078064
      ],
      "translation": [7.358891487121582, 4.958309173583984, 6.925790786743164]
    }
  ],
  "materials": [
    {
      "doubleSided": true,
      "name": "Material.001",
      "pbrMetallicRoughness": {
        "baseColorTexture": {
          "index": 0
        },
        "metallicFactor": 0
      }
    },
    {
      "doubleSided": true,
      "name": "Material.002",
      "pbrMetallicRoughness": {
        "baseColorTexture": {
          "index": 1
        },
        "metallicFactor": 0,
        "roughnessFactor": 0.6000000238418579
      }
    }
  ],
  "meshes": [
    {
      "name": "Object_0.005",
      "primitives": [
        {
          "attributes": {
            "POSITION": 0,
            "NORMAL": 1,
            "TEXCOORD_0": 2
          },
          "indices": 3,
          "material": 0
        }
      ]
    },
    {
      "name": "Object_1.005",
      "primitives": [
        {
          "attributes": {
            "POSITION": 4,
            "NORMAL": 5,
            "TEXCOORD_0": 6
          },
          "indices": 7,
          "material": 1
        }
      ]
    }
  ],
  "textures": [
    {
      "sampler": 0,
      "source": 0
    },
    {
      "sampler": 0,
      "source": 1
    }
  ],
  "images": [
    {
      "bufferView": 4,
      "mimeType": "image/png",
      "name": "Material.001_baseColor"
    },
    {
      "bufferView": 9,
      "mimeType": "image/png",
      "name": "Material.002_baseColor"
    }
  ],
  "accessors": [
    {
      "bufferView": 0,
      "componentType": 5126,
      "count": 3324,
      "max": [1.697432041168213, 0.8981770277023315, 8.636504173278809],
      "min": [-1.6188969612121582, -0.8050780296325684, 0.02878599986433983],
      "type": "VEC3"
    },
    {
      "bufferView": 1,
      "componentType": 5126,
      "count": 3324,
      "type": "VEC3"
    },
    {
      "bufferView": 2,
      "componentType": 5126,
      "count": 3324,
      "type": "VEC2"
    },
    {
      "bufferView": 3,
      "componentType": 5123,
      "count": 13512,
      "type": "SCALAR"
    },
    {
      "bufferView": 5,
      "componentType": 5126,
      "count": 1722,
      "max": [1.6195119619369507, 0.6102849841117859, 8.510796546936035],
      "min": [-1.519531011581421, -0.5343520045280457, 0.06179799884557724],
      "type": "VEC3"
    },
    {
      "bufferView": 6,
      "componentType": 5126,
      "count": 1722,
      "type": "VEC3"
    },
    {
      "bufferView": 7,
      "componentType": 5126,
      "count": 1722,
      "type": "VEC2"
    },
    {
      "bufferView": 8,
      "componentType": 5123,
      "count": 8598,
      "type": "SCALAR"
    }
  ],
  "bufferViews": [
    {
      "buffer": 0,
      "byteLength": 39888,
      "byteOffset": 0
    },
    {
      "buffer": 0,
      "byteLength": 39888,
      "byteOffset": 39888
    },
    {
      "buffer": 0,
      "byteLength": 26592,
      "byteOffset": 79776
    },
    {
      "buffer": 0,
      "byteLength": 27024,
      "byteOffset": 106368
    },
    {
      "buffer": 0,
      "byteLength": 361279,
      "byteOffset": 133392
    },
    {
      "buffer": 0,
      "byteLength": 20664,
      "byteOffset": 494672
    },
    {
      "buffer": 0,
      "byteLength": 20664,
      "byteOffset": 515336
    },
    {
      "buffer": 0,
      "byteLength": 13776,
      "byteOffset": 536000
    },
    {
      "buffer": 0,
      "byteLength": 17196,
      "byteOffset": 549776
    },
    {
      "buffer": 0,
      "byteLength": 278000,
      "byteOffset": 566972
    }
  ],
  "samplers": [
    {
      "magFilter": 9729,
      "minFilter": 9987
    }
  ],
  "buffers": [
    {
      "byteLength": 844972,
      "uri": "data:application/octet-stream;base64,"
    }
  ]
}
