{
  "asset": {
    "generator": "Khronos glTF Blender I/O v1.6.16",
    "version": "2.0"
  },
  "scene": 0,
  "scenes": [
    {
      "name": "Scene",
      "nodes": [0]
    }
  ],
  "nodes": [
    {
      "mesh": 0,
      "name": "Mesh_0",
      "translation": [0, 0.6602351665496826, 0]
    }
  ],
  "materials": [
    {
      "name": "Material_0",
      "pbrMetallicRoughness": {
        "baseColorFactor": [
          0.501960813999176,
          0.501960813999176,
          0.501960813999176,
          1
        ],
        "metallicFactor": 0
      }
    }
  ],
  "meshes": [
    {
      "name": "Mesh_0",
      "primitives": [
        {
          "attributes": {
            "POSITION": 0,
            "NORMAL": 1
          },
          "indices": 2,
          "material": 0
        }
      ]
    }
  ],
  "accessors": [
    {
      "bufferView": 0,
      "componentType": 5126,
      "count": 265,
      "max": [5.727765083312988, -0.08789899945259094, 18.00800323486328],
      "min": [-5.872233867645264, -0.4878990054130554, 6.608002185821533],
      "type": "VEC3"
    },
    {
      "bufferView": 1,
      "componentType": 5126,
      "count": 265,
      "type": "VEC3"
    },
    {
      "bufferView": 2,
      "componentType": 5123,
      "count": 279,
      "type": "SCALAR"
    }
  ],
  "bufferViews": [
    {
      "buffer": 0,
      "byteLength": 3180,
      "byteOffset": 0
    },
    {
      "buffer": 0,
      "byteLength": 3180,
      "byteOffset": 3180
    },
    {
      "buffer": 0,
      "byteLength": 558,
      "byteOffset": 6360
    }
  ],
  "buffers": [
    {
      "byteLength": 6920,
      "uri": "data:application/octet-stream;base64,"
    }
  ]
}
