{
  "asset": {
    "generator": "Khronos glTF Blender I/O v1.5.17",
    "version": "2.0"
  },
  "scene": 0,
  "scenes": [
    {
      "name": "Scene",
      "nodes": [13, 14, 15]
    }
  ],
  "nodes": [
    {
      "name": "Object_7"
    },
    {
      "children": [0],
      "name": "Camera.001",
      "rotation": [
        -0.21255731582641602,
        0.9047970175743103,
        -0.08438937366008759,
        0.35922175645828247
      ],
      "scale": [100, 100.00000762939453, 99.99999237060547],
      "translation": [735.88916015625, 495.8309326171875, 692.5791015625]
    },
    {
      "name": "Object_5"
    },
    {
      "children": [2],
      "name": "Object_4",
      "rotation": [0.7071068286895752, 0, 0, 0.7071068286895752]
    },
    {
      "children": [3],
      "name": "Light.001",
      "rotation": [
        0.16907569766044617,
        0.7558803558349609,
        -0.2721713185310364,
        0.570947527885437
      ],
      "scale": [100.00000762939453, 100, 100],
      "translation": [407.6245422363281, 590.38623046875, -100.54539489746094]
    },
    {
      "mesh": 0,
      "name": "Mesh_0008.rip_Mesh_0008.rip_mesh0000_Material.002_0"
    },
    {
      "children": [5],
      "name": "Mesh_0008.rip_Mesh_0008.rip_mesh0000",
      "scale": [100, 100, 100]
    },
    {
      "mesh": 1,
      "name": "Mesh_0009.rip_Mesh_0009.rip_mesh0000_Material.001_0"
    },
    {
      "children": [7],
      "name": "Mesh_0009.rip_Mesh_0009.rip_mesh0000",
      "scale": [100, 100, 100]
    },
    {
      "mesh": 2,
      "name": "Mesh_0010.rip_Mesh_0010.rip_mesh0000_Material.003_0"
    },
    {
      "children": [9],
      "name": "Mesh_0010.rip_Mesh_0010.rip_mesh0000",
      "scale": [100, 100, 100]
    },
    {
      "children": [1, 4, 6, 8, 10],
      "name": "RootNode"
    },
    {
      "children": [11],
      "name": "63cf421508424efd86714c25941408e6.fbx",
      "rotation": [0.7071068286895752, 0, 0, 0.7071068286895752]
    },
    {
      "children": [12],
      "name": "Sketchfab_model",
      "rotation": [-0.7071068286895752, 0, 0, 0.7071068286895752]
    },
    {
      "name": "Light",
      "rotation": [
        0.16907575726509094,
        0.7558803558349609,
        -0.27217137813568115,
        0.570947527885437
      ],
      "translation": [4.076245307922363, 5.903861999511719, -1.0054539442062378]
    },
    {
      "name": "Camera",
      "rotation": [
        0.483536034822464,
        0.33687159419059753,
        -0.20870360732078552,
        0.7804827094078064
      ],
      "translation": [7.358891487121582, 4.958309173583984, 6.925790786743164]
    }
  ],
  "materials": [
    {
      "doubleSided": true,
      "name": "Material.004",
      "pbrMetallicRoughness": {
        "baseColorTexture": {
          "index": 0
        },
        "metallicFactor": 0,
        "roughnessFactor": 0.6000000238418579
      }
    },
    {
      "doubleSided": true,
      "name": "Material.003",
      "pbrMetallicRoughness": {
        "baseColorTexture": {
          "index": 1
        },
        "metallicFactor": 0,
        "roughnessFactor": 0.6000000238418579
      }
    },
    {
      "doubleSided": true,
      "name": "Material.005",
      "pbrMetallicRoughness": {
        "baseColorTexture": {
          "index": 2
        },
        "metallicFactor": 0,
        "roughnessFactor": 0.6000000238418579
      }
    }
  ],
  "meshes": [
    {
      "name": "Mesh_0008.rip_Mesh_0008.rip_mesh0000_Material.002_0",
      "primitives": [
        {
          "attributes": {
            "POSITION": 0,
            "NORMAL": 1,
            "TEXCOORD_0": 2
          },
          "indices": 3,
          "material": 0
        }
      ]
    },
    {
      "name": "Mesh_0009.rip_Mesh_0009.rip_mesh0000_Material.001_0",
      "primitives": [
        {
          "attributes": {
            "POSITION": 4,
            "NORMAL": 5,
            "TEXCOORD_0": 6
          },
          "indices": 7,
          "material": 1
        }
      ]
    },
    {
      "name": "Mesh_0010.rip_Mesh_0010.rip_mesh0000_Material.003_0",
      "primitives": [
        {
          "attributes": {
            "POSITION": 8,
            "NORMAL": 9,
            "TEXCOORD_0": 10
          },
          "indices": 11,
          "material": 2
        }
      ]
    }
  ],
  "textures": [
    {
      "sampler": 0,
      "source": 0
    },
    {
      "sampler": 0,
      "source": 1
    },
    {
      "sampler": 0,
      "source": 2
    }
  ],
  "images": [
    {
      "bufferView": 4,
      "mimeType": "image/png",
      "name": "Material.002_baseColor"
    },
    {
      "bufferView": 9,
      "mimeType": "image/png",
      "name": "Material.001_baseColor"
    },
    {
      "bufferView": 14,
      "mimeType": "image/png",
      "name": "Material.003_baseColor"
    }
  ],
  "accessors": [
    {
      "bufferView": 0,
      "componentType": 5126,
      "count": 2825,
      "max": [0.6384819746017456, 6.323267936706543, 1.0670679807662964],
      "min": [-0.5777930021286011, 0.01671300083398819, -0.45507100224494934],
      "type": "VEC3"
    },
    {
      "bufferView": 1,
      "componentType": 5126,
      "count": 2825,
      "type": "VEC3"
    },
    {
      "bufferView": 2,
      "componentType": 5126,
      "count": 2825,
      "type": "VEC2"
    },
    {
      "bufferView": 3,
      "componentType": 5123,
      "count": 13356,
      "type": "SCALAR"
    },
    {
      "bufferView": 5,
      "componentType": 5126,
      "count": 3222,
      "max": [0.6594780087471008, 6.544832229614258, 0.8563089966773987],
      "min": [-0.6173490285873413, -0.013636000454425812, -0.4998700022697449],
      "type": "VEC3"
    },
    {
      "bufferView": 6,
      "componentType": 5126,
      "count": 3222,
      "type": "VEC3"
    },
    {
      "bufferView": 7,
      "componentType": 5126,
      "count": 3222,
      "type": "VEC2"
    },
    {
      "bufferView": 8,
      "componentType": 5123,
      "count": 11826,
      "type": "SCALAR"
    },
    {
      "bufferView": 10,
      "componentType": 5126,
      "count": 2030,
      "max": [0.6684619784355164, 6.4242448806762695, 0.3787649869918823],
      "min": [-0.49434399604797363, 5.164813995361328, -0.6062440276145935],
      "type": "VEC3"
    },
    {
      "bufferView": 11,
      "componentType": 5126,
      "count": 2030,
      "type": "VEC3"
    },
    {
      "bufferView": 12,
      "componentType": 5126,
      "count": 2030,
      "type": "VEC2"
    },
    {
      "bufferView": 13,
      "componentType": 5123,
      "count": 7431,
      "type": "SCALAR"
    }
  ],
  "bufferViews": [
    {
      "buffer": 0,
      "byteLength": 33900,
      "byteOffset": 0
    },
    {
      "buffer": 0,
      "byteLength": 33900,
      "byteOffset": 33900
    },
    {
      "buffer": 0,
      "byteLength": 22600,
      "byteOffset": 67800
    },
    {
      "buffer": 0,
      "byteLength": 26712,
      "byteOffset": 90400
    },
    {
      "buffer": 0,
      "byteLength": 193629,
      "byteOffset": 117112
    },
    {
      "buffer": 0,
      "byteLength": 38664,
      "byteOffset": 310744
    },
    {
      "buffer": 0,
      "byteLength": 38664,
      "byteOffset": 349408
    },
    {
      "buffer": 0,
      "byteLength": 25776,
      "byteOffset": 388072
    },
    {
      "buffer": 0,
      "byteLength": 23652,
      "byteOffset": 413848
    },
    {
      "buffer": 0,
      "byteLength": 380505,
      "byteOffset": 437500
    },
    {
      "buffer": 0,
      "byteLength": 24360,
      "byteOffset": 818008
    },
    {
      "buffer": 0,
      "byteLength": 24360,
      "byteOffset": 842368
    },
    {
      "buffer": 0,
      "byteLength": 16240,
      "byteOffset": 866728
    },
    {
      "buffer": 0,
      "byteLength": 14862,
      "byteOffset": 882968
    },
    {
      "buffer": 0,
      "byteLength": 53882,
      "byteOffset": 897832
    }
  ],
  "samplers": [
    {
      "magFilter": 9729,
      "minFilter": 9987
    }
  ],
  "buffers": [
    {
      "byteLength": 951716,
      "uri": "data:application/octet-stream;base64,"
    }
  ]
}
