{
  "asset": {
    "generator": "Khronos glTF Blender I/O v1.6.16",
    "version": "2.0"
  },
  "scene": 0,
  "scenes": [
    {
      "name": "Scene",
      "nodes": [0]
    }
  ],
  "nodes": [
    {
      "mesh": 0,
      "name": "nav_mesh",
      "scale": [20, 20, 20],
      "translation": [0, 0.40533384680747986, 12.344399452209473]
    }
  ],
  "materials": [
    {
      "doubleSided": true,
      "name": "nav mesh",
      "pbrMetallicRoughness": {
        "baseColorFactor": [0, 0.8000000715255737, 0.0161528792232275, 1],
        "metallicFactor": 0,
        "roughnessFactor": 0.5
      }
    }
  ],
  "meshes": [
    {
      "name": "Mesh_2",
      "primitives": [
        {
          "attributes": {
            "POSITION": 0,
            "NORMAL": 1,
            "TEXCOORD_0": 2,
            "TEXCOORD_1": 3
          },
          "indices": 4,
          "material": 0
        }
      ]
    }
  ],
  "accessors": [
    {
      "bufferView": 0,
      "componentType": 5126,
      "count": 1175,
      "max": [0.30480000376701355, 0, 0.3124150037765503],
      "min": [-0.4648200273513794, 0, -1.4375762939453125],
      "type": "VEC3"
    },
    {
      "bufferView": 1,
      "componentType": 5126,
      "count": 1175,
      "type": "VEC3"
    },
    {
      "bufferView": 2,
      "componentType": 5126,
      "count": 1175,
      "type": "VEC2"
    },
    {
      "bufferView": 3,
      "componentType": 5126,
      "count": 1175,
      "type": "VEC2"
    },
    {
      "bufferView": 4,
      "componentType": 5123,
      "count": 1701,
      "type": "SCALAR"
    }
  ],
  "bufferViews": [
    {
      "buffer": 0,
      "byteLength": 14100,
      "byteOffset": 0
    },
    {
      "buffer": 0,
      "byteLength": 14100,
      "byteOffset": 14100
    },
    {
      "buffer": 0,
      "byteLength": 9400,
      "byteOffset": 28200
    },
    {
      "buffer": 0,
      "byteLength": 9400,
      "byteOffset": 37600
    },
    {
      "buffer": 0,
      "byteLength": 3402,
      "byteOffset": 47000
    }
  ],
  "buffers": [
    {
      "byteLength": 50404,
      "uri": "data:application/octet-stream;base64,"
    }
  ]
}
